<svg xmlns="http://www.w3.org/2000/svg" width="20" height="20" viewBox="0 0 20 20"><defs><style>.a{fill:#444;}</style></defs><path class="a" d="M17.14,28.308,8.287,19.282a.99.99,0,0,1-.223-.325,1.033,1.033,0,0,1,0-.714.99.99,0,0,1,.223-.325L17.172,8.86a.856.856,0,0,1,.637-.26.908.908,0,0,1,.669.292.954.954,0,0,1,0,1.364l-7.229,7.37h15.8a.919.919,0,0,1,.685.276,1.035,1.035,0,0,1,0,1.4.919.919,0,0,1-.685.276h-15.8l7.261,7.4a.89.89,0,0,1,.255.649.943.943,0,0,1-.287.682.911.911,0,0,1-1.338,0Z" transform="translate(-8 -8.6)"/></svg>