<svg xmlns="http://www.w3.org/2000/svg" width="96" height="96" viewBox="0 0 96 96"><defs><style>.a{fill:#f1716c;}.b{fill:none;}.c{fill:#fff;}</style></defs><g transform="translate(-16 -16)"><circle class="a" cx="48" cy="48" r="48" transform="translate(16 16)"/><g transform="translate(32 32)"><path class="b" d="M0,0H64V64H0Z"/><path class="c" d="M24.333,20.667H19V2H13.667V20.667H8.333V2H3V20.667A10.629,10.629,0,0,0,13,31.253v24.08h6.667V31.253a10.629,10.629,0,0,0,10-10.587V2H24.333Zm13.333-8V34h6.667V55.333H51V2C43.64,2,37.667,7.973,37.667,12.667Z" transform="translate(5 3.333)"/></g></g></svg>